<?xml version="1.0" encoding="UTF-8" standalone="no"?>
<!DOCTYPE svg PUBLIC "-//W3C//DTD SVG 1.1//EN"
 "http://www.w3.org/Graphics/SVG/1.1/DTD/svg11.dtd">
<!-- Generated by graphviz version 14.1.2 (20260124.0452)
 -->
<!-- Pages: 1 -->
<svg width="720pt" height="609pt"
 viewBox="0.00 0.00 720.00 609.00" xmlns="http://www.w3.org/2000/svg" xmlns:xlink="http://www.w3.org/1999/xlink">
<g id="graph0" class="graph" transform="scale(0.761526 0.761526) rotate(0) translate(4 795.62)">
<polygon fill="white" stroke="none" points="-4,4 -4,-795.62 941.47,-795.62 941.47,4 -4,4"/>
<!-- modulok.astro_core (2) -->
<g id="node1" class="node">
<title>modulok.astro_core (2)</title>
<g id="a_node1"><a xlink:href="http://localhost:8888/notebooks/modulok/astro_core (2).py" xlink:title="modulok.astro_core (2)" target="_blank">
<ellipse fill="none" stroke="black" cx="601.55" cy="-302.14" rx="98.44" ry="18"/>
<text xml:space="preserve" text-anchor="middle" x="601.55" y="-297.09" font-family="Times New Roman,serif" font-size="14.00">modulok.astro_core (2)</text>
</a>
</g>
</g>
<!-- modulok.config -->
<g id="node5" class="node">
<title>modulok.config</title>
<g id="a_node5"><a xlink:href="http://localhost:8888/notebooks/modulok/config.py" xlink:title="modulok.config" target="_blank">
<ellipse fill="none" stroke="black" cx="841.59" cy="-218.14" rx="70.29" ry="18"/>
<text xml:space="preserve" text-anchor="middle" x="841.59" y="-213.09" font-family="Times New Roman,serif" font-size="14.00">modulok.config</text>
</a>
</g>
</g>
<!-- modulok.astro_core (2)&#45;&gt;modulok.config -->
<g id="edge1" class="edge">
<title>modulok.astro_core (2)&#45;&gt;modulok.config</title>
<path fill="none" stroke="black" d="M657.09,-286.87C674.05,-281.85 692.75,-276.03 709.71,-270.14 737.78,-260.4 768.69,-248.19 793.42,-238.05"/>
<polygon fill="black" stroke="black" points="794.66,-241.33 802.57,-234.28 791.99,-234.85 794.66,-241.33"/>
</g>
<!-- modulok.tables -->
<g id="node17" class="node">
<title>modulok.tables</title>
<g id="a_node17"><a xlink:href="http://localhost:8888/notebooks/modulok/tables.py" xlink:title="modulok.tables" target="_blank">
<ellipse fill="none" stroke="black" cx="841.59" cy="-417.14" rx="68.24" ry="18"/>
<text xml:space="preserve" text-anchor="middle" x="841.59" y="-412.09" font-family="Times New Roman,serif" font-size="14.00">modulok.tables</text>
</a>
</g>
</g>
<!-- modulok.astro_core (2)&#45;&gt;modulok.tables -->
<g id="edge2" class="edge">
<title>modulok.astro_core (2)&#45;&gt;modulok.tables</title>
<path fill="none" stroke="black" d="M670.06,-315.37C683.49,-319.05 697.27,-323.6 709.71,-329.14 747.13,-345.83 785.52,-373.07 810.96,-392.83"/>
<polygon fill="black" stroke="black" points="808.51,-395.36 818.53,-398.8 812.85,-389.86 808.51,-395.36"/>
</g>
<!-- modulok.astro_core -->
<g id="node2" class="node">
<title>modulok.astro_core</title>
<g id="a_node2"><a xlink:href="http://localhost:8888/notebooks/modulok/astro_core.py" xlink:title="modulok.astro_core" target="_blank">
<ellipse fill="none" stroke="black" cx="601.55" cy="-486.14" rx="85.13" ry="18"/>
<text xml:space="preserve" text-anchor="middle" x="601.55" y="-481.09" font-family="Times New Roman,serif" font-size="14.00">modulok.astro_core</text>
</a>
</g>
</g>
<!-- modulok.prashna_core -->
<g id="node11" class="node">
<title>modulok.prashna_core</title>
<g id="a_node11"><a xlink:href="http://localhost:8888/notebooks/modulok/prashna_core.py" xlink:title="modulok.prashna_core" target="_blank">
<ellipse fill="none" stroke="black" cx="841.59" cy="-586.14" rx="95.88" ry="18"/>
<text xml:space="preserve" text-anchor="middle" x="841.59" y="-581.09" font-family="Times New Roman,serif" font-size="14.00">modulok.prashna_core</text>
</a>
</g>
</g>
<!-- modulok.astro_core&#45;&gt;modulok.prashna_core -->
<g id="edge3" class="edge">
<title>modulok.astro_core&#45;&gt;modulok.prashna_core</title>
<path fill="none" stroke="black" d="M679.15,-493.91C689.56,-496.85 699.99,-500.29 709.71,-504.14 747.45,-519.12 787.82,-542.97 813.58,-561.34"/>
<polygon fill="black" stroke="black" points="811.37,-564.06 821.49,-567.19 815.53,-558.43 811.37,-564.06"/>
</g>
<!-- modulok.settings -->
<g id="node13" class="node">
<title>modulok.settings</title>
<g id="a_node13"><a xlink:href="http://localhost:8888/notebooks/modulok/settings.py" xlink:title="modulok.settings" target="_blank">
<ellipse fill="none" stroke="black" cx="841.59" cy="-486.14" rx="74.89" ry="18"/>
<text xml:space="preserve" text-anchor="middle" x="841.59" y="-481.09" font-family="Times New Roman,serif" font-size="14.00">modulok.settings</text>
</a>
</g>
</g>
<!-- modulok.astro_core&#45;&gt;modulok.settings -->
<g id="edge4" class="edge">
<title>modulok.astro_core&#45;&gt;modulok.settings</title>
<path fill="none" stroke="black" d="M687.15,-486.14C709.22,-486.14 733.03,-486.14 755.15,-486.14"/>
<polygon fill="black" stroke="black" points="755.03,-489.64 765.03,-486.14 755.03,-482.64 755.03,-489.64"/>
</g>
<!-- modulok.astro_core&#45;&gt;modulok.tables -->
<g id="edge5" class="edge">
<title>modulok.astro_core&#45;&gt;modulok.tables</title>
<path fill="none" stroke="black" d="M653.32,-471.43C691.52,-460.36 743.87,-445.18 783.51,-433.69"/>
<polygon fill="black" stroke="black" points="784.25,-437.12 792.88,-430.97 782.3,-430.4 784.25,-437.12"/>
</g>
<!-- modulok.chart_drawer -->
<g id="node3" class="node">
<title>modulok.chart_drawer</title>
<g id="a_node3"><a xlink:href="http://localhost:8888/notebooks/modulok/chart_drawer.py" xlink:title="modulok.chart_drawer" target="_blank">
<ellipse fill="none" stroke="black" cx="601.55" cy="-356.14" rx="95.37" ry="18"/>
<text xml:space="preserve" text-anchor="middle" x="601.55" y="-351.09" font-family="Times New Roman,serif" font-size="14.00">modulok.chart_drawer</text>
</a>
</g>
</g>
<!-- modulok.chart_drawer&#45;&gt;modulok.config -->
<g id="edge6" class="edge">
<title>modulok.chart_drawer&#45;&gt;modulok.config</title>
<path fill="none" stroke="black" d="M671.71,-343.66C684.73,-339.95 697.94,-335.2 709.71,-329.14 752.08,-307.35 792.59,-269.47 817.03,-244.1"/>
<polygon fill="black" stroke="black" points="819.3,-246.79 823.64,-237.12 814.22,-241.98 819.3,-246.79"/>
</g>
<!-- modulok.chart_drawer&#45;&gt;modulok.tables -->
<g id="edge7" class="edge">
<title>modulok.chart_drawer&#45;&gt;modulok.tables</title>
<path fill="none" stroke="black" d="M659.57,-370.75C696.25,-380.15 743.83,-392.35 781,-401.87"/>
<polygon fill="black" stroke="black" points="779.66,-405.14 790.22,-404.23 781.4,-398.36 779.66,-405.14"/>
</g>
<!-- modulok.config (2) -->
<g id="node4" class="node">
<title>modulok.config (2)</title>
<g id="a_node4"><a xlink:href="http://localhost:8888/notebooks/modulok/config (2).py" xlink:title="modulok.config (2)" target="_blank">
<ellipse fill="none" stroke="black" cx="97.41" cy="-433.14" rx="83.6" ry="18"/>
<text xml:space="preserve" text-anchor="middle" x="97.41" y="-428.09" font-family="Times New Roman,serif" font-size="14.00">modulok.config (2)</text>
</a>
</g>
</g>
<!-- modulok.draw -->
<g id="node6" class="node">
<title>modulok.draw</title>
<g id="a_node6"><a xlink:href="http://localhost:8888/notebooks/modulok/draw.py" xlink:title="modulok.draw" target="_blank">
<ellipse fill="none" stroke="black" cx="601.55" cy="-540.14" rx="65.17" ry="18"/>
<text xml:space="preserve" text-anchor="middle" x="601.55" y="-535.09" font-family="Times New Roman,serif" font-size="14.00">modulok.draw</text>
</a>
</g>
</g>
<!-- modulok.draw&#45;&gt;modulok.tables -->
<g id="edge8" class="edge">
<title>modulok.draw&#45;&gt;modulok.tables</title>
<path fill="none" stroke="black" d="M662.33,-533.17C678.76,-529.19 695.84,-522.94 709.71,-513.14 733.28,-496.51 723.65,-477.72 745.71,-459.14 757.35,-449.34 771.64,-441.44 785.56,-435.24"/>
<polygon fill="black" stroke="black" points="786.82,-438.51 794.69,-431.42 784.12,-432.06 786.82,-438.51"/>
</g>
<!-- modulok.elemzes -->
<g id="node7" class="node">
<title>modulok.elemzes</title>
<g id="a_node7"><a xlink:href="http://localhost:8888/notebooks/modulok/elemzes.py" xlink:title="modulok.elemzes" target="_blank">
<ellipse fill="none" stroke="black" cx="344.11" cy="-264.14" rx="76.94" ry="18"/>
<text xml:space="preserve" text-anchor="middle" x="344.11" y="-259.09" font-family="Times New Roman,serif" font-size="14.00">modulok.elemzes</text>
</a>
</g>
</g>
<!-- modulok.elemzes&#45;&gt;modulok.astro_core -->
<g id="edge13" class="edge">
<title>modulok.elemzes&#45;&gt;modulok.astro_core</title>
<path fill="none" stroke="black" d="M363.79,-281.83C386.4,-303.41 425.43,-341.23 457.39,-375.14 474.02,-392.79 475.07,-400.25 493.39,-416.14 513.88,-433.91 539.18,-450.65 560.06,-463.29"/>
<polygon fill="black" stroke="black" points="558.22,-466.28 568.61,-468.39 561.81,-460.26 558.22,-466.28"/>
</g>
<!-- modulok.elemzes&#45;&gt;modulok.config -->
<g id="edge10" class="edge">
<title>modulok.elemzes&#45;&gt;modulok.config</title>
<path fill="none" stroke="black" d="M407.74,-253.74C434.12,-249.65 465.19,-245.21 493.39,-242.14 584.72,-232.23 690.03,-225.62 760.5,-221.9"/>
<polygon fill="black" stroke="black" points="760.62,-225.4 770.43,-221.38 760.26,-218.4 760.62,-225.4"/>
</g>
<!-- modulok.elemzes&#45;&gt;modulok.tables -->
<g id="edge11" class="edge">
<title>modulok.elemzes&#45;&gt;modulok.tables</title>
<path fill="none" stroke="black" d="M360.76,-282.09C385.71,-309.33 437.45,-360.35 493.39,-383.14 540.42,-402.31 674.86,-410.96 761.98,-414.64"/>
<polygon fill="black" stroke="black" points="761.77,-418.13 771.91,-415.04 762.06,-411.14 761.77,-418.13"/>
</g>
<!-- modulok.terkep -->
<g id="node18" class="node">
<title>modulok.terkep</title>
<g id="a_node18"><a xlink:href="http://localhost:8888/notebooks/modulok/terkep.py" xlink:title="modulok.terkep" target="_blank">
<ellipse fill="none" stroke="black" cx="601.55" cy="-118.14" rx="69.78" ry="18"/>
<text xml:space="preserve" text-anchor="middle" x="601.55" y="-113.09" font-family="Times New Roman,serif" font-size="14.00">modulok.terkep</text>
</a>
</g>
</g>
<!-- modulok.elemzes&#45;&gt;modulok.terkep -->
<g id="edge12" class="edge">
<title>modulok.elemzes&#45;&gt;modulok.terkep</title>
<path fill="none" stroke="black" d="M362.06,-246.34C387.92,-220.22 439.9,-171.75 493.39,-145.14 505.2,-139.27 518.39,-134.6 531.38,-130.92"/>
<polygon fill="black" stroke="black" points="531.97,-134.38 540.74,-128.44 530.18,-127.62 531.97,-134.38"/>
</g>
<!-- modulok.visuals -->
<g id="node20" class="node">
<title>modulok.visuals</title>
<g id="a_node20"><a xlink:href="http://localhost:8888/notebooks/modulok/visuals.py" xlink:title="modulok.visuals" target="_blank">
<ellipse fill="none" stroke="black" cx="601.55" cy="-172.14" rx="72.34" ry="18"/>
<text xml:space="preserve" text-anchor="middle" x="601.55" y="-167.09" font-family="Times New Roman,serif" font-size="14.00">modulok.visuals</text>
</a>
</g>
</g>
<!-- modulok.elemzes&#45;&gt;modulok.visuals -->
<g id="edge9" class="edge">
<title>modulok.elemzes&#45;&gt;modulok.visuals</title>
<path fill="none" stroke="black" d="M381.91,-248.12C411.69,-235.43 454.87,-217.65 493.39,-204.14 508.8,-198.74 525.64,-193.43 541.33,-188.74"/>
<polygon fill="black" stroke="black" points="541.91,-192.22 550.51,-186.03 539.93,-185.51 541.91,-192.22"/>
</g>
<!-- modulok.load_alomszotar -->
<g id="node8" class="node">
<title>modulok.load_alomszotar</title>
<g id="a_node8"><a xlink:href="http://localhost:8888/notebooks/modulok/load_alomszotar.py" xlink:title="modulok.load_alomszotar" target="_blank">
<ellipse fill="none" stroke="black" cx="601.55" cy="-632.14" rx="108.16" ry="18"/>
<text xml:space="preserve" text-anchor="middle" x="601.55" y="-627.09" font-family="Times New Roman,serif" font-size="14.00">modulok.load_alomszotar</text>
</a>
</g>
</g>
<!-- modulok.music_prompt -->
<g id="node9" class="node">
<title>modulok.music_prompt</title>
<g id="a_node9"><a xlink:href="http://localhost:8888/notebooks/modulok/music_prompt.py" xlink:title="modulok.music_prompt" target="_blank">
<ellipse fill="none" stroke="black" cx="601.55" cy="-740.14" rx="101" ry="18"/>
<text xml:space="preserve" text-anchor="middle" x="601.55" y="-735.09" font-family="Times New Roman,serif" font-size="14.00">modulok.music_prompt</text>
</a>
</g>
</g>
<!-- modulok.music_prompt&#45;&gt;modulok.prashna_core -->
<g id="edge14" class="edge">
<title>modulok.music_prompt&#45;&gt;modulok.prashna_core</title>
<path fill="none" stroke="black" d="M674.87,-727.45C686.93,-723.8 698.99,-719.12 709.71,-713.14 755.38,-687.68 796.59,-642.23 820.09,-613.17"/>
<polygon fill="black" stroke="black" points="822.67,-615.55 826.14,-605.54 817.18,-611.2 822.67,-615.55"/>
</g>
<!-- modulok.napi_utravalo -->
<g id="node10" class="node">
<title>modulok.napi_utravalo</title>
<g id="a_node10"><a xlink:href="http://localhost:8888/notebooks/modulok/napi_utravalo.py" xlink:title="modulok.napi_utravalo" target="_blank">
<ellipse fill="none" stroke="black" cx="97.41" cy="-487.14" rx="97.41" ry="18"/>
<text xml:space="preserve" text-anchor="middle" x="97.41" y="-482.09" font-family="Times New Roman,serif" font-size="14.00">modulok.napi_utravalo</text>
</a>
</g>
</g>
<!-- modulok.prashna_core&#45;&gt;modulok.astro_core -->
<g id="edge15" class="edge">
<title>modulok.prashna_core&#45;&gt;modulok.astro_core</title>
<path fill="none" stroke="black" d="M802.96,-569.32C777.48,-554.98 742.6,-535.2 709.71,-522.14 692.44,-515.29 672.9,-509.76 655.28,-505.04"/>
<polygon fill="black" stroke="black" points="656.34,-501.7 645.77,-502.52 654.54,-508.46 656.34,-501.7"/>
</g>
<!-- modulok.score_renderer -->
<g id="node12" class="node">
<title>modulok.score_renderer</title>
<g id="a_node12"><a xlink:href="http://localhost:8888/notebooks/modulok/score_renderer.py" xlink:title="modulok.score_renderer" target="_blank">
<ellipse fill="none" stroke="black" cx="601.55" cy="-686.14" rx="101.51" ry="18"/>
<text xml:space="preserve" text-anchor="middle" x="601.55" y="-681.09" font-family="Times New Roman,serif" font-size="14.00">modulok.score_renderer</text>
</a>
</g>
</g>
<!-- modulok.sonic_world -->
<g id="node14" class="node">
<title>modulok.sonic_world</title>
<g id="a_node14"><a xlink:href="http://localhost:8888/notebooks/modulok/sonic_world.py" xlink:title="modulok.sonic_world" target="_blank">
<ellipse fill="none" stroke="black" cx="344.11" cy="-494.14" rx="92.3" ry="18"/>
<text xml:space="preserve" text-anchor="middle" x="344.11" y="-489.09" font-family="Times New Roman,serif" font-size="14.00">modulok.sonic_world</text>
</a>
</g>
</g>
<!-- modulok.spiritual_map -->
<g id="node15" class="node">
<title>modulok.spiritual_map</title>
<g id="a_node15"><a xlink:href="http://localhost:8888/notebooks/modulok/spiritual_map.py" xlink:title="modulok.spiritual_map" target="_blank">
<ellipse fill="none" stroke="black" cx="344.11" cy="-122.14" rx="97.93" ry="18"/>
<text xml:space="preserve" text-anchor="middle" x="344.11" y="-117.09" font-family="Times New Roman,serif" font-size="14.00">modulok.spiritual_map</text>
</a>
</g>
</g>
<!-- modulok.spiritual_map&#45;&gt;modulok.config -->
<g id="edge16" class="edge">
<title>modulok.spiritual_map&#45;&gt;modulok.config</title>
<path fill="none" stroke="black" d="M389.41,-105.84C460.04,-82.55 601.24,-47.16 709.71,-91.14 759.22,-111.22 800.33,-160 822.6,-190.93"/>
<polygon fill="black" stroke="black" points="819.68,-192.87 828.28,-199.05 825.41,-188.85 819.68,-192.87"/>
</g>
<!-- modulok.tables (2) -->
<g id="node16" class="node">
<title>modulok.tables (2)</title>
<g id="a_node16"><a xlink:href="http://localhost:8888/notebooks/modulok/tables (2).py" xlink:title="modulok.tables (2)" target="_blank">
<ellipse fill="none" stroke="black" cx="97.41" cy="-541.14" rx="81.55" ry="18"/>
<text xml:space="preserve" text-anchor="middle" x="97.41" y="-536.09" font-family="Times New Roman,serif" font-size="14.00">modulok.tables (2)</text>
</a>
</g>
</g>
<!-- modulok.terkep&#45;&gt;modulok.config -->
<g id="edge17" class="edge">
<title>modulok.terkep&#45;&gt;modulok.config</title>
<path fill="none" stroke="black" d="M657.94,-129.17C674.85,-133.31 693.31,-138.63 709.71,-145.14 743.66,-158.61 779.73,-179.26 805.38,-195.16"/>
<polygon fill="black" stroke="black" points="803.41,-198.06 813.74,-200.41 807.13,-192.13 803.41,-198.06"/>
</g>
<!-- modulok.varshaphala_tools -->
<g id="node19" class="node">
<title>modulok.varshaphala_tools</title>
<g id="a_node19"><a xlink:href="http://localhost:8888/notebooks/modulok/varshaphala_tools.py" xlink:title="modulok.varshaphala_tools" target="_blank">
<ellipse fill="none" stroke="black" cx="344.11" cy="-402.14" rx="113.28" ry="18"/>
<text xml:space="preserve" text-anchor="middle" x="344.11" y="-397.09" font-family="Times New Roman,serif" font-size="14.00">modulok.varshaphala_tools</text>
</a>
</g>
</g>
<!-- modulok.varshaphala_tools&#45;&gt;modulok.astro_core -->
<g id="edge18" class="edge">
<title>modulok.varshaphala_tools&#45;&gt;modulok.astro_core</title>
<path fill="none" stroke="black" d="M403.33,-417.89C420.79,-422.84 439.94,-428.49 457.39,-434.14 487.68,-443.95 521.15,-456.03 548.1,-466.08"/>
<polygon fill="black" stroke="black" points="546.84,-469.35 557.43,-469.58 549.3,-462.79 546.84,-469.35"/>
</g>
<!-- gui.dreamy_web -->
<g id="node21" class="node">
<title>gui.dreamy_web</title>
<g id="a_node21"><a xlink:href="http://localhost:8888/notebooks/gui/dreamy_web.py" xlink:title="gui.dreamy_web" target="_blank">
<ellipse fill="none" stroke="black" cx="344.11" cy="-632.14" rx="73.36" ry="18"/>
<text xml:space="preserve" text-anchor="middle" x="344.11" y="-627.09" font-family="Times New Roman,serif" font-size="14.00">gui.dreamy_web</text>
</a>
</g>
</g>
<!-- gui.dreamy_web&#45;&gt;modulok.astro_core -->
<g id="edge23" class="edge">
<title>gui.dreamy_web&#45;&gt;modulok.astro_core</title>
<path fill="none" stroke="black" d="M401.19,-620.47C420.8,-614.14 441.79,-604.55 457.39,-590.14 485.14,-564.51 464.26,-537.19 493.39,-513.14 500.38,-507.37 508.45,-502.81 516.95,-499.2"/>
<polygon fill="black" stroke="black" points="517.93,-502.57 526.08,-495.8 515.49,-496.02 517.93,-502.57"/>
</g>
<!-- gui.dreamy_web&#45;&gt;modulok.draw -->
<g id="edge21" class="edge">
<title>gui.dreamy_web&#45;&gt;modulok.draw</title>
<path fill="none" stroke="black" d="M386.72,-617.16C431.31,-601.1 502.12,-575.59 549.92,-558.38"/>
<polygon fill="black" stroke="black" points="551,-561.71 559.22,-555.03 548.62,-555.13 551,-561.71"/>
</g>
<!-- gui.dreamy_web&#45;&gt;modulok.load_alomszotar -->
<g id="edge19" class="edge">
<title>gui.dreamy_web&#45;&gt;modulok.load_alomszotar</title>
<path fill="none" stroke="black" d="M417.97,-632.14C437.93,-632.14 460.11,-632.14 481.93,-632.14"/>
<polygon fill="black" stroke="black" points="481.78,-635.64 491.78,-632.14 481.78,-628.64 481.78,-635.64"/>
</g>
<!-- gui.dreamy_web&#45;&gt;modulok.music_prompt -->
<g id="edge22" class="edge">
<title>gui.dreamy_web&#45;&gt;modulok.music_prompt</title>
<path fill="none" stroke="black" d="M371.44,-649.21C400.34,-667.29 448.6,-695.59 493.39,-713.14 502.97,-716.9 513.23,-720.26 523.48,-723.23"/>
<polygon fill="black" stroke="black" points="522.52,-726.6 533.09,-725.9 524.39,-719.86 522.52,-726.6"/>
</g>
<!-- gui.dreamy_web&#45;&gt;modulok.score_renderer -->
<g id="edge20" class="edge">
<title>gui.dreamy_web&#45;&gt;modulok.score_renderer</title>
<path fill="none" stroke="black" d="M400.85,-643.93C436.87,-651.54 484.23,-661.55 523.78,-669.91"/>
<polygon fill="black" stroke="black" points="523,-673.33 533.5,-671.97 524.44,-666.48 523,-673.33"/>
</g>
<!-- gui.dreamy_widget -->
<g id="node22" class="node">
<title>gui.dreamy_widget</title>
<g id="a_node22"><a xlink:href="http://localhost:8888/notebooks/gui/dreamy_widget.py" xlink:title="gui.dreamy_widget" target="_blank">
<ellipse fill="none" stroke="black" cx="344.11" cy="-563.14" rx="83.08" ry="18"/>
<text xml:space="preserve" text-anchor="middle" x="344.11" y="-558.09" font-family="Times New Roman,serif" font-size="14.00">gui.dreamy_widget</text>
</a>
</g>
</g>
<!-- gui.dreamy_widget&#45;&gt;modulok.astro_core -->
<g id="edge27" class="edge">
<title>gui.dreamy_widget&#45;&gt;modulok.astro_core</title>
<path fill="none" stroke="black" d="M388.3,-547.58C417.73,-537.23 457.68,-523.64 493.39,-513.14 505.97,-509.44 519.48,-505.79 532.51,-502.43"/>
<polygon fill="black" stroke="black" points="533.03,-505.91 541.85,-500.05 531.3,-499.13 533.03,-505.91"/>
</g>
<!-- gui.dreamy_widget&#45;&gt;modulok.config -->
<g id="edge26" class="edge">
<title>gui.dreamy_widget&#45;&gt;modulok.config</title>
<path fill="none" stroke="black" d="M409.79,-551.76C427.67,-545.55 445.43,-535.96 457.39,-521.14 526.79,-435.16 415.49,-353.51 493.39,-275.14 527.67,-240.65 661.76,-250.2 709.71,-242.14 730.38,-238.67 752.83,-234.65 773.21,-230.9"/>
<polygon fill="black" stroke="black" points="773.6,-234.39 782.8,-229.13 772.33,-227.5 773.6,-234.39"/>
</g>
<!-- gui.dreamy_widget&#45;&gt;modulok.draw -->
<g id="edge25" class="edge">
<title>gui.dreamy_widget&#45;&gt;modulok.draw</title>
<path fill="none" stroke="black" d="M421.4,-556.27C455.22,-553.23 494.8,-549.66 528.15,-546.66"/>
<polygon fill="black" stroke="black" points="528.05,-550.19 537.7,-545.8 527.42,-543.21 528.05,-550.19"/>
</g>
<!-- gui.dreamy_widget&#45;&gt;modulok.load_alomszotar -->
<g id="edge28" class="edge">
<title>gui.dreamy_widget&#45;&gt;modulok.load_alomszotar</title>
<path fill="none" stroke="black" d="M397.42,-577.27C436.27,-587.77 489.64,-602.18 531.92,-613.61"/>
<polygon fill="black" stroke="black" points="530.95,-616.97 541.51,-616.2 532.77,-610.21 530.95,-616.97"/>
</g>
<!-- gui.dreamy_widget&#45;&gt;modulok.music_prompt -->
<g id="edge30" class="edge">
<title>gui.dreamy_widget&#45;&gt;modulok.music_prompt</title>
<path fill="none" stroke="black" d="M406.48,-575.3C424.86,-581.56 443.74,-590.99 457.39,-605.14 492.51,-641.56 456.3,-678.73 493.39,-713.14 498.21,-717.62 503.66,-721.37 509.49,-724.53"/>
<polygon fill="black" stroke="black" points="507.69,-727.55 518.23,-728.65 510.67,-721.22 507.69,-727.55"/>
</g>
<!-- gui.dreamy_widget&#45;&gt;modulok.prashna_core -->
<g id="edge24" class="edge">
<title>gui.dreamy_widget&#45;&gt;modulok.prashna_core</title>
<path fill="none" stroke="black" d="M425.82,-566.89C510.58,-570.82 644.18,-577.03 736.75,-581.32"/>
<polygon fill="black" stroke="black" points="736.44,-584.81 746.6,-581.78 736.77,-577.82 736.44,-584.81"/>
</g>
<!-- gui.dreamy_widget&#45;&gt;modulok.score_renderer -->
<g id="edge29" class="edge">
<title>gui.dreamy_widget&#45;&gt;modulok.score_renderer</title>
<path fill="none" stroke="black" d="M401.21,-576.52C420.38,-582.98 441.08,-592.21 457.39,-605.14 479.99,-623.06 469.83,-642.51 493.39,-659.14 499.5,-663.46 506.23,-667.08 513.25,-670.13"/>
<polygon fill="black" stroke="black" points="511.71,-673.29 522.3,-673.64 514.25,-666.76 511.71,-673.29"/>
</g>
<!-- gui.dreamy_widget&#45;&gt;modulok.tables -->
<g id="edge31" class="edge">
<title>gui.dreamy_widget&#45;&gt;modulok.tables</title>
<path fill="none" stroke="black" d="M402.53,-550.03C421.5,-543.64 441.73,-534.37 457.39,-521.14 481.73,-500.58 466.78,-476.67 493.39,-459.14 536.13,-430.98 673.19,-421.7 761.78,-418.64"/>
<polygon fill="black" stroke="black" points="761.74,-422.14 771.62,-418.32 761.51,-415.15 761.74,-422.14"/>
</g>
<!-- gui.gui_main -->
<g id="node23" class="node">
<title>gui.gui_main</title>
<g id="a_node23"><a xlink:href="http://localhost:8888/notebooks/gui/gui_main.py" xlink:title="gui.gui_main" target="_blank">
<ellipse fill="none" stroke="black" cx="97.41" cy="-379.14" rx="60.56" ry="18"/>
<text xml:space="preserve" text-anchor="middle" x="97.41" y="-374.09" font-family="Times New Roman,serif" font-size="14.00">gui.gui_main</text>
</a>
</g>
</g>
<!-- gui.gui_main&#45;&gt;modulok.astro_core -->
<g id="edge39" class="edge">
<title>gui.gui_main&#45;&gt;modulok.astro_core</title>
<path fill="none" stroke="black" d="M146.97,-389.74C162.59,-393.94 179.76,-399.4 194.83,-406.14 212.16,-413.9 213.06,-422.44 230.83,-429.14 257.09,-439.05 416.42,-461.56 517.16,-475.14"/>
<polygon fill="black" stroke="black" points="516.66,-478.61 527.04,-476.47 517.6,-471.67 516.66,-478.61"/>
</g>
<!-- gui.gui_main&#45;&gt;modulok.chart_drawer -->
<g id="edge37" class="edge">
<title>gui.gui_main&#45;&gt;modulok.chart_drawer</title>
<path fill="none" stroke="black" d="M157.49,-376.44C240.95,-372.61 394.62,-365.58 497.22,-360.88"/>
<polygon fill="black" stroke="black" points="497.19,-364.38 507.02,-360.43 496.87,-357.39 497.19,-364.38"/>
</g>
<!-- gui.gui_main&#45;&gt;modulok.config -->
<g id="edge34" class="edge">
<title>gui.gui_main&#45;&gt;modulok.config</title>
<path fill="none" stroke="black" d="M100.77,-361.01C108.51,-309.47 138.22,-161.57 230.83,-95.14 404.09,29.14 515.89,22.74 709.71,-66.14 765.17,-91.58 806.02,-153.39 826.28,-189.88"/>
<polygon fill="black" stroke="black" points="823.13,-191.41 830.96,-198.55 829.29,-188.09 823.13,-191.41"/>
</g>
<!-- gui.gui_main&#45;&gt;modulok.elemzes -->
<g id="edge35" class="edge">
<title>gui.gui_main&#45;&gt;modulok.elemzes</title>
<path fill="none" stroke="black" d="M131.16,-363.75C174.23,-343.51 250.1,-307.86 298.42,-285.15"/>
<polygon fill="black" stroke="black" points="299.65,-288.43 307.21,-281.01 296.68,-282.1 299.65,-288.43"/>
</g>
<!-- gui.gui_main&#45;&gt;modulok.prashna_core -->
<g id="edge33" class="edge">
<title>gui.gui_main&#45;&gt;modulok.prashna_core</title>
<path fill="none" stroke="black" d="M156.21,-384.11C170.7,-388.09 184.92,-394.83 194.83,-406.14 269.68,-491.57 161.11,-569.48 230.83,-659.14 308.29,-758.75 369.6,-742.68 493.39,-767.14 587.71,-785.78 624.1,-810.89 709.71,-767.14 772.48,-735.07 812.09,-657.3 829.79,-614.89"/>
<polygon fill="black" stroke="black" points="832.95,-616.41 833.44,-605.83 826.46,-613.79 832.95,-616.41"/>
</g>
<!-- gui.gui_main&#45;&gt;modulok.sonic_world -->
<g id="edge32" class="edge">
<title>gui.gui_main&#45;&gt;modulok.sonic_world</title>
<path fill="none" stroke="black" d="M152.59,-387.02C167.29,-391.02 182.52,-397.05 194.83,-406.14 218.63,-423.72 207.07,-444.51 230.83,-462.14 240.14,-469.06 250.9,-474.48 261.99,-478.73"/>
<polygon fill="black" stroke="black" points="260.67,-481.97 271.26,-481.96 262.97,-475.36 260.67,-481.97"/>
</g>
<!-- gui.gui_main&#45;&gt;modulok.spiritual_map -->
<g id="edge38" class="edge">
<title>gui.gui_main&#45;&gt;modulok.spiritual_map</title>
<path fill="none" stroke="black" d="M114.59,-361.53C139.42,-334.57 188.48,-281.53 230.83,-237.14 260.34,-206.22 294.73,-171.13 317.6,-147.93"/>
<polygon fill="black" stroke="black" points="319.88,-150.6 324.41,-141.02 314.9,-145.68 319.88,-150.6"/>
</g>
<!-- gui.gui_main&#45;&gt;modulok.varshaphala_tools -->
<g id="edge36" class="edge">
<title>gui.gui_main&#45;&gt;modulok.varshaphala_tools</title>
<path fill="none" stroke="black" d="M155.78,-384.54C179.25,-386.74 207.21,-389.37 234.27,-391.91"/>
<polygon fill="black" stroke="black" points="233.6,-395.37 243.89,-392.82 234.26,-388.4 233.6,-395.37"/>
</g>
</g>
</svg>
