<?xml version="1.0" encoding="UTF-8" standalone="no"?>
<!DOCTYPE svg PUBLIC "-//W3C//DTD SVG 1.1//EN"
 "http://www.w3.org/Graphics/SVG/1.1/DTD/svg11.dtd">
<!-- Generated by graphviz version 14.1.2 (20260124.0452)
 -->
<!-- Pages: 1 -->
<svg width="720pt" height="272pt"
 viewBox="0.00 0.00 720.00 272.00" xmlns="http://www.w3.org/2000/svg" xmlns:xlink="http://www.w3.org/1999/xlink">
<g id="graph0" class="graph" transform="scale(0.43793 0.43793) rotate(0) translate(4 617.4)">
<polygon fill="white" stroke="none" points="-4,4 -4,-617.4 1640.1,-617.4 1640.1,4 -4,4"/>
<!-- modulok.astro_core -->
<g id="node1" class="node">
<title>modulok.astro_core</title>
<g id="a_node1"><a xlink:href="http://localhost:8888/notebooks/modulok/astro_core.py" xlink:title="modulok.astro_core" target="_blank">
<ellipse fill="none" stroke="black" cx="647.1" cy="-311.4" rx="85.13" ry="18"/>
<text xml:space="preserve" text-anchor="middle" x="647.1" y="-306.35" font-family="Times New Roman,serif" font-size="14.00">modulok.astro_core</text>
</a>
</g>
</g>
<!-- modulok.config -->
<g id="node2" class="node">
<title>modulok.config</title>
<g id="a_node2"><a xlink:href="http://localhost:8888/notebooks/modulok/config.py" xlink:title="modulok.config" target="_blank">
<ellipse fill="none" stroke="black" cx="913.76" cy="-441.4" rx="70.29" ry="18"/>
<text xml:space="preserve" text-anchor="middle" x="913.76" y="-436.35" font-family="Times New Roman,serif" font-size="14.00">modulok.config</text>
</a>
</g>
</g>
<!-- modulok.astro_core&#45;&gt;modulok.config -->
<g id="edge2" class="edge">
<title>modulok.astro_core&#45;&gt;modulok.config</title>
<path fill="none" stroke="black" d="M682.16,-328.13C730.09,-351.67 817.44,-394.58 869.78,-420.29"/>
<polygon fill="black" stroke="black" points="868.2,-423.41 878.72,-424.68 871.28,-417.13 868.2,-423.41"/>
</g>
<!-- modulok.sonicjyotish -->
<g id="node9" class="node">
<title>modulok.sonicjyotish</title>
<g id="a_node9"><a xlink:href="http://localhost:8888/notebooks/modulok/sonicjyotish.py" xlink:title="modulok.sonicjyotish" target="_blank">
<ellipse fill="none" stroke="black" cx="913.76" cy="-248.4" rx="91.27" ry="18"/>
<text xml:space="preserve" text-anchor="middle" x="913.76" y="-243.35" font-family="Times New Roman,serif" font-size="14.00">modulok.sonicjyotish</text>
</a>
</g>
</g>
<!-- modulok.astro_core&#45;&gt;modulok.sonicjyotish -->
<g id="edge1" class="edge">
<title>modulok.astro_core&#45;&gt;modulok.sonicjyotish</title>
<path fill="none" stroke="black" d="M704.88,-297.88C745.4,-288.24 800.13,-275.21 843.26,-264.94"/>
<polygon fill="black" stroke="black" points="843.85,-268.4 852.77,-262.68 842.23,-261.59 843.85,-268.4"/>
</g>
<!-- modulok.draw -->
<g id="node3" class="node">
<title>modulok.draw</title>
<g id="a_node3"><a xlink:href="http://localhost:8888/notebooks/modulok/draw.py" xlink:title="modulok.draw" target="_blank">
<ellipse fill="none" stroke="black" cx="1364.67" cy="-311.4" rx="65.17" ry="18"/>
<text xml:space="preserve" text-anchor="middle" x="1364.67" y="-306.35" font-family="Times New Roman,serif" font-size="14.00">modulok.draw</text>
</a>
</g>
</g>
<!-- modulok.draw&#45;&gt;modulok.astro_core -->
<g id="edge3" class="edge">
<title>modulok.draw&#45;&gt;modulok.astro_core</title>
<path fill="none" stroke="black" d="M1299.32,-311.4C1173.03,-311.4 892.17,-311.4 743.95,-311.4"/>
<polygon fill="black" stroke="black" points="744.16,-307.9 734.16,-311.4 744.16,-314.9 744.16,-307.9"/>
</g>
<!-- modulok.tables -->
<g id="node11" class="node">
<title>modulok.tables</title>
<g id="a_node11"><a xlink:href="http://localhost:8888/notebooks/modulok/tables.py" xlink:title="modulok.tables" target="_blank">
<ellipse fill="none" stroke="black" cx="1567.86" cy="-487.4" rx="68.24" ry="18"/>
<text xml:space="preserve" text-anchor="middle" x="1567.86" y="-482.35" font-family="Times New Roman,serif" font-size="14.00">modulok.tables</text>
</a>
</g>
</g>
<!-- modulok.draw&#45;&gt;modulok.tables -->
<g id="edge4" class="edge">
<title>modulok.draw&#45;&gt;modulok.tables</title>
<path fill="none" stroke="black" d="M1385.69,-328.92C1421.62,-360.35 1497.12,-426.39 1538.4,-462.51"/>
<polygon fill="black" stroke="black" points="1535.94,-465 1545.77,-468.95 1540.55,-459.74 1535.94,-465"/>
</g>
<!-- modulok.draw_lord -->
<g id="node4" class="node">
<title>modulok.draw_lord</title>
<g id="a_node4"><a xlink:href="http://localhost:8888/notebooks/modulok/draw_lord.py" xlink:title="modulok.draw_lord" target="_blank">
<ellipse fill="none" stroke="black" cx="1364.67" cy="-533.4" rx="84.62" ry="18"/>
<text xml:space="preserve" text-anchor="middle" x="1364.67" y="-528.35" font-family="Times New Roman,serif" font-size="14.00">modulok.draw_lord</text>
</a>
</g>
</g>
<!-- modulok.draw_lord&#45;&gt;modulok.tables -->
<g id="edge5" class="edge">
<title>modulok.draw_lord&#45;&gt;modulok.tables</title>
<path fill="none" stroke="black" d="M1423.59,-520.16C1448.77,-514.4 1478.32,-507.64 1504.03,-501.76"/>
<polygon fill="black" stroke="black" points="1504.72,-505.2 1513.69,-499.56 1503.16,-498.37 1504.72,-505.2"/>
</g>
<!-- modulok.elemzes -->
<g id="node5" class="node">
<title>modulok.elemzes</title>
<g id="a_node5"><a xlink:href="http://localhost:8888/notebooks/modulok/elemzes.py" xlink:title="modulok.elemzes" target="_blank">
<ellipse fill="none" stroke="black" cx="104.58" cy="-487.4" rx="76.94" ry="18"/>
<text xml:space="preserve" text-anchor="middle" x="104.58" y="-482.35" font-family="Times New Roman,serif" font-size="14.00">modulok.elemzes</text>
</a>
</g>
</g>
<!-- modulok.elemzes&#45;&gt;modulok.astro_core -->
<g id="edge9" class="edge">
<title>modulok.elemzes&#45;&gt;modulok.astro_core</title>
<path fill="none" stroke="black" d="M133.55,-470.31C161.11,-454.07 204.82,-429.89 245.16,-414.4 355.05,-372.2 488.46,-341.83 570.3,-325.44"/>
<polygon fill="black" stroke="black" points="570.89,-328.89 580.01,-323.51 569.52,-322.02 570.89,-328.89"/>
</g>
<!-- modulok.elemzes&#45;&gt;modulok.config -->
<g id="edge6" class="edge">
<title>modulok.elemzes&#45;&gt;modulok.config</title>
<path fill="none" stroke="black" d="M180.27,-483.73C254.27,-480.04 370.83,-474.1 471.72,-468.4 598.47,-461.23 745.66,-452.05 833.89,-446.45"/>
<polygon fill="black" stroke="black" points="833.88,-449.96 843.63,-445.83 833.43,-442.97 833.88,-449.96"/>
</g>
<!-- modulok.elemzes&#45;&gt;modulok.draw -->
<g id="edge7" class="edge">
<title>modulok.elemzes&#45;&gt;modulok.draw</title>
<path fill="none" stroke="black" d="M174.16,-495.32C276.68,-506.46 476.07,-525.4 646.1,-525.4 646.1,-525.4 646.1,-525.4 914.76,-525.4 1089.1,-525.4 1267.71,-392.25 1335.38,-336"/>
<polygon fill="black" stroke="black" points="1337.26,-339 1342.66,-329.89 1332.75,-333.64 1337.26,-339"/>
</g>
<!-- modulok.graha_lord_core -->
<g id="node6" class="node">
<title>modulok.graha_lord_core</title>
<g id="a_node6"><a xlink:href="http://localhost:8888/notebooks/modulok/graha_lord_core.py" xlink:title="modulok.graha_lord_core" target="_blank">
<ellipse fill="none" stroke="black" cx="358.44" cy="-441.4" rx="107.14" ry="18"/>
<text xml:space="preserve" text-anchor="middle" x="358.44" y="-436.35" font-family="Times New Roman,serif" font-size="14.00">modulok.graha_lord_core</text>
</a>
</g>
</g>
<!-- modulok.elemzes&#45;&gt;modulok.graha_lord_core -->
<g id="edge10" class="edge">
<title>modulok.elemzes&#45;&gt;modulok.graha_lord_core</title>
<path fill="none" stroke="black" d="M166.23,-476.32C198.27,-470.47 238.12,-463.19 273.13,-456.8"/>
<polygon fill="black" stroke="black" points="273.61,-460.27 282.82,-455.03 272.35,-453.38 273.61,-460.27"/>
</g>
<!-- modulok.elemzes&#45;&gt;modulok.tables -->
<g id="edge8" class="edge">
<title>modulok.elemzes&#45;&gt;modulok.tables</title>
<path fill="none" stroke="black" d="M158.12,-500.64C174.51,-504.9 192.62,-509.72 209.16,-514.4 225.26,-518.95 228.81,-521.83 245.16,-525.4 420.82,-563.8 466.3,-579.4 646.1,-579.4 646.1,-579.4 646.1,-579.4 1136.37,-579.4 1282.06,-579.4 1326.11,-608.53 1463.61,-560.4 1492.59,-550.26 1520.72,-529.41 1540.28,-512.58"/>
<polygon fill="black" stroke="black" points="1542.6,-515.2 1547.76,-505.95 1537.96,-509.96 1542.6,-515.2"/>
</g>
<!-- modulok.graha_lord_core&#45;&gt;modulok.astro_core -->
<g id="edge11" class="edge">
<title>modulok.graha_lord_core&#45;&gt;modulok.astro_core</title>
<path fill="none" stroke="black" d="M397.21,-424.27C449.2,-400.69 542.77,-358.26 599.18,-332.68"/>
<polygon fill="black" stroke="black" points="600.57,-335.89 608.23,-328.57 597.68,-329.52 600.57,-335.89"/>
</g>
<!-- modulok.graha_lord_core&#45;&gt;modulok.tables -->
<g id="edge12" class="edge">
<title>modulok.graha_lord_core&#45;&gt;modulok.tables</title>
<path fill="none" stroke="black" d="M443.16,-452.71C551.37,-466.33 745.75,-487.4 912.76,-487.4 912.76,-487.4 912.76,-487.4 1136.37,-487.4 1259.22,-487.4 1401.78,-487.4 1488.1,-487.4"/>
<polygon fill="black" stroke="black" points="1487.86,-490.9 1497.86,-487.4 1487.86,-483.9 1487.86,-490.9"/>
</g>
<!-- modulok.prashna_core -->
<g id="node7" class="node">
<title>modulok.prashna_core</title>
<g id="a_node7"><a xlink:href="http://localhost:8888/notebooks/modulok/prashna_core.py" xlink:title="modulok.prashna_core" target="_blank">
<ellipse fill="none" stroke="black" cx="358.44" cy="-311.4" rx="95.88" ry="18"/>
<text xml:space="preserve" text-anchor="middle" x="358.44" y="-306.35" font-family="Times New Roman,serif" font-size="14.00">modulok.prashna_core</text>
</a>
</g>
</g>
<!-- modulok.prashna_core&#45;&gt;modulok.astro_core -->
<g id="edge13" class="edge">
<title>modulok.prashna_core&#45;&gt;modulok.astro_core</title>
<path fill="none" stroke="black" d="M454.5,-311.4C485.41,-311.4 519.72,-311.4 550.67,-311.4"/>
<polygon fill="black" stroke="black" points="550.39,-314.9 560.39,-311.4 550.39,-307.9 550.39,-314.9"/>
</g>
<!-- modulok.prashna_engine -->
<g id="node8" class="node">
<title>modulok.prashna_engine</title>
<g id="a_node8"><a xlink:href="http://localhost:8888/notebooks/modulok/prashna_engine.py" xlink:title="modulok.prashna_engine" target="_blank">
<ellipse fill="none" stroke="black" cx="104.58" cy="-353.4" rx="104.58" ry="18"/>
<text xml:space="preserve" text-anchor="middle" x="104.58" y="-348.35" font-family="Times New Roman,serif" font-size="14.00">modulok.prashna_engine</text>
</a>
</g>
</g>
<!-- modulok.prashna_engine&#45;&gt;modulok.draw -->
<g id="edge14" class="edge">
<title>modulok.prashna_engine&#45;&gt;modulok.draw</title>
<path fill="none" stroke="black" d="M190.15,-364.05C296.41,-376.49 484.44,-395.4 646.1,-395.4 646.1,-395.4 646.1,-395.4 914.76,-395.4 1059.35,-395.4 1225.75,-352.77 1309.5,-328.25"/>
<polygon fill="black" stroke="black" points="1310.47,-331.61 1319.07,-325.42 1308.48,-324.9 1310.47,-331.61"/>
</g>
<!-- modulok.prashna_engine&#45;&gt;modulok.prashna_core -->
<g id="edge15" class="edge">
<title>modulok.prashna_engine&#45;&gt;modulok.prashna_core</title>
<path fill="none" stroke="black" d="M181.15,-340.8C210.44,-335.91 244.09,-330.3 274.08,-325.3"/>
<polygon fill="black" stroke="black" points="274.6,-328.76 283.89,-323.66 273.45,-321.86 274.6,-328.76"/>
</g>
<!-- modulok.sonic_bridge -->
<g id="node10" class="node">
<title>modulok.sonic_bridge</title>
<g id="a_node10"><a xlink:href="http://localhost:8888/notebooks/modulok/sonic_bridge.py" xlink:title="modulok.sonic_bridge" target="_blank">
<ellipse fill="none" stroke="black" cx="1135.37" cy="-97.4" rx="94.34" ry="18"/>
<text xml:space="preserve" text-anchor="middle" x="1135.37" y="-92.35" font-family="Times New Roman,serif" font-size="14.00">modulok.sonic_bridge</text>
</a>
</g>
</g>
<!-- modulok.sonicjyotish&#45;&gt;modulok.sonic_bridge -->
<g id="edge16" class="edge">
<title>modulok.sonicjyotish&#45;&gt;modulok.sonic_bridge</title>
<path fill="none" stroke="black" d="M928.21,-230.38C949.3,-203.39 992.75,-152.62 1041.03,-124.4 1047.15,-120.82 1053.77,-117.69 1060.57,-114.96"/>
<polygon fill="black" stroke="black" points="1061.75,-118.25 1069.92,-111.51 1059.33,-111.69 1061.75,-118.25"/>
</g>
<!-- modulok.sonic_bridge&#45;&gt;modulok.draw -->
<g id="edge18" class="edge">
<title>modulok.sonic_bridge&#45;&gt;modulok.draw</title>
<path fill="none" stroke="black" d="M1202.2,-110.37C1211.93,-113.97 1221.45,-118.56 1229.72,-124.4 1288.54,-165.98 1330.97,-241.81 1350.9,-282.97"/>
<polygon fill="black" stroke="black" points="1347.62,-284.22 1355.06,-291.76 1353.95,-281.23 1347.62,-284.22"/>
</g>
<!-- modulok.varga_adapter -->
<g id="node12" class="node">
<title>modulok.varga_adapter</title>
<g id="a_node12"><a xlink:href="http://localhost:8888/notebooks/modulok/varga_adapter.py" xlink:title="modulok.varga_adapter" target="_blank">
<ellipse fill="none" stroke="black" cx="1364.67" cy="-74.4" rx="98.95" ry="18"/>
<text xml:space="preserve" text-anchor="middle" x="1364.67" y="-69.35" font-family="Times New Roman,serif" font-size="14.00">modulok.varga_adapter</text>
</a>
</g>
</g>
<!-- modulok.sonic_bridge&#45;&gt;modulok.varga_adapter -->
<g id="edge17" class="edge">
<title>modulok.sonic_bridge&#45;&gt;modulok.varga_adapter</title>
<path fill="none" stroke="black" d="M1219.72,-88.97C1234.81,-87.44 1250.66,-85.83 1266.12,-84.27"/>
<polygon fill="black" stroke="black" points="1266.18,-87.78 1275.77,-83.29 1265.47,-80.82 1266.18,-87.78"/>
</g>
<!-- modulok.varga_adapter&#45;&gt;modulok.tables -->
<g id="edge19" class="edge">
<title>modulok.varga_adapter&#45;&gt;modulok.tables</title>
<path fill="none" stroke="black" d="M1374.57,-92.68C1406.38,-157.98 1514.57,-380.07 1553.1,-459.15"/>
<polygon fill="black" stroke="black" points="1549.87,-460.51 1557.39,-467.97 1556.16,-457.45 1549.87,-460.51"/>
</g>
<!-- modulok.varga_ikozaeder_adapter -->
<g id="node13" class="node">
<title>modulok.varga_ikozaeder_adapter</title>
<g id="a_node13"><a xlink:href="http://localhost:8888/notebooks/modulok/varga_ikozaeder_adapter.py" xlink:title="modulok.varga_ikozaeder_adapter" target="_blank">
<ellipse fill="none" stroke="black" cx="647.1" cy="-51.4" rx="139.38" ry="18"/>
<text xml:space="preserve" text-anchor="middle" x="647.1" y="-46.35" font-family="Times New Roman,serif" font-size="14.00">modulok.varga_ikozaeder_adapter</text>
</a>
</g>
</g>
<!-- modulok.varga_ikozaeder_adapter&#45;&gt;modulok.varga_adapter -->
<g id="edge20" class="edge">
<title>modulok.varga_ikozaeder_adapter&#45;&gt;modulok.varga_adapter</title>
<path fill="none" stroke="black" d="M782.69,-55.73C919.55,-60.12 1128.95,-66.85 1255.44,-70.92"/>
<polygon fill="black" stroke="black" points="1255.04,-74.41 1265.15,-71.23 1255.27,-67.41 1255.04,-74.41"/>
</g>
<!-- modulok.varshaphala_tools -->
<g id="node14" class="node">
<title>modulok.varshaphala_tools</title>
<g id="a_node14"><a xlink:href="http://localhost:8888/notebooks/modulok/varshaphala_tools.py" xlink:title="modulok.varshaphala_tools" target="_blank">
<ellipse fill="none" stroke="black" cx="358.44" cy="-219.4" rx="113.28" ry="18"/>
<text xml:space="preserve" text-anchor="middle" x="358.44" y="-214.35" font-family="Times New Roman,serif" font-size="14.00">modulok.varshaphala_tools</text>
</a>
</g>
</g>
<!-- modulok.varshaphala_tools&#45;&gt;modulok.astro_core -->
<g id="edge21" class="edge">
<title>modulok.varshaphala_tools&#45;&gt;modulok.astro_core</title>
<path fill="none" stroke="black" d="M417.02,-235.17C434.64,-240.16 454.03,-245.84 471.72,-251.4 512.23,-264.13 557.58,-279.78 591.87,-291.9"/>
<polygon fill="black" stroke="black" points="590.58,-295.16 601.17,-295.2 592.92,-288.56 590.58,-295.16"/>
</g>
<!-- modulok.__init__ -->
<g id="node15" class="node">
<title>modulok.__init__</title>
<g id="a_node15"><a xlink:href="http://localhost:8888/notebooks/modulok/__init__.py" xlink:title="modulok.__init__" target="_blank">
<ellipse fill="none" stroke="black" cx="104.58" cy="-541.4" rx="77.45" ry="18"/>
<text xml:space="preserve" text-anchor="middle" x="104.58" y="-536.35" font-family="Times New Roman,serif" font-size="14.00">modulok.__init__</text>
</a>
</g>
</g>
<!-- gui.gui_helpers -->
<g id="node16" class="node">
<title>gui.gui_helpers</title>
<g id="a_node16"><a xlink:href="http://localhost:8888/notebooks/gui/gui_helpers.py" xlink:title="gui.gui_helpers" target="_blank">
<ellipse fill="none" stroke="black" cx="1135.37" cy="-151.4" rx="68.24" ry="18"/>
<text xml:space="preserve" text-anchor="middle" x="1135.37" y="-146.35" font-family="Times New Roman,serif" font-size="14.00">gui.gui_helpers</text>
</a>
</g>
</g>
<!-- gui.gui_helpers&#45;&gt;modulok.draw -->
<g id="edge22" class="edge">
<title>gui.gui_helpers&#45;&gt;modulok.draw</title>
<path fill="none" stroke="black" d="M1185.64,-163.89C1200.41,-168.77 1216.25,-175.21 1229.72,-183.4 1275.09,-211 1317.66,-256.25 1342.17,-284.9"/>
<polygon fill="black" stroke="black" points="1339.38,-287.02 1348.49,-292.41 1344.73,-282.51 1339.38,-287.02"/>
</g>
<!-- gui.main_gui -->
<g id="node17" class="node">
<title>gui.main_gui</title>
<g id="a_node17"><a xlink:href="http://localhost:8888/notebooks/gui/main_gui.py" xlink:title="gui.main_gui" target="_blank">
<ellipse fill="none" stroke="black" cx="104.58" cy="-154.4" rx="60.56" ry="18"/>
<text xml:space="preserve" text-anchor="middle" x="104.58" y="-149.35" font-family="Times New Roman,serif" font-size="14.00">gui.main_gui</text>
</a>
</g>
</g>
<!-- gui.main_gui&#45;&gt;modulok.astro_core -->
<g id="edge29" class="edge">
<title>gui.main_gui&#45;&gt;modulok.astro_core</title>
<path fill="none" stroke="black" d="M125.33,-171.39C151.08,-192.56 198.38,-228.16 245.16,-246.4 252.62,-249.31 451.47,-280.83 566.27,-298.89"/>
<polygon fill="black" stroke="black" points="565.53,-302.31 575.95,-300.41 566.62,-295.4 565.53,-302.31"/>
</g>
<!-- gui.main_gui&#45;&gt;modulok.draw -->
<g id="edge27" class="edge">
<title>gui.main_gui&#45;&gt;modulok.draw</title>
<path fill="none" stroke="black" d="M164.68,-157.47C337.86,-166.69 842.14,-195.09 1005.03,-221.4 1114.51,-239.08 1239.55,-273.88 1309.29,-294.65"/>
<polygon fill="black" stroke="black" points="1307.97,-297.9 1318.55,-297.42 1309.98,-291.2 1307.97,-297.9"/>
</g>
<!-- gui.main_gui&#45;&gt;modulok.prashna_core -->
<g id="edge30" class="edge">
<title>gui.main_gui&#45;&gt;modulok.prashna_core</title>
<path fill="none" stroke="black" d="M120.44,-172.08C144.1,-199.13 193.03,-250.65 245.16,-279.4 256.28,-285.53 268.68,-290.58 281.07,-294.71"/>
<polygon fill="black" stroke="black" points="279.89,-298 290.48,-297.65 281.98,-291.32 279.89,-298"/>
</g>
<!-- gui.main_gui&#45;&gt;modulok.sonic_bridge -->
<g id="edge28" class="edge">
<title>gui.main_gui&#45;&gt;modulok.sonic_bridge</title>
<path fill="none" stroke="black" d="M164.59,-151.13C333.44,-141.77 820.04,-114.82 1032.78,-103.03"/>
<polygon fill="black" stroke="black" points="1032.94,-106.52 1042.73,-102.48 1032.55,-99.54 1032.94,-106.52"/>
</g>
<!-- gui.main_gui&#45;&gt;modulok.varga_adapter -->
<g id="edge25" class="edge">
<title>gui.main_gui&#45;&gt;modulok.varga_adapter</title>
<path fill="none" stroke="black" d="M121.64,-136.91C145.75,-111.95 193.95,-66.87 245.16,-46.4 411.49,20.08 466.98,-5.4 646.1,-5.4 646.1,-5.4 646.1,-5.4 914.76,-5.4 1050.35,-5.4 1206.34,-36.53 1294.14,-56.97"/>
<polygon fill="black" stroke="black" points="1293.27,-60.37 1303.81,-59.25 1294.87,-53.55 1293.27,-60.37"/>
</g>
<!-- gui.main_gui&#45;&gt;modulok.varga_ikozaeder_adapter -->
<g id="edge23" class="edge">
<title>gui.main_gui&#45;&gt;modulok.varga_ikozaeder_adapter</title>
<path fill="none" stroke="black" d="M130.57,-137.86C157.58,-120.93 202.51,-95.44 245.16,-83.4 326.51,-60.44 420.57,-52.04 497.13,-49.56"/>
<polygon fill="black" stroke="black" points="496.89,-53.07 506.78,-49.28 496.69,-46.07 496.89,-53.07"/>
</g>
<!-- gui.main_gui&#45;&gt;modulok.varshaphala_tools -->
<g id="edge26" class="edge">
<title>gui.main_gui&#45;&gt;modulok.varshaphala_tools</title>
<path fill="none" stroke="black" d="M151.48,-166.25C189.07,-175.95 242.91,-189.84 286.11,-200.99"/>
<polygon fill="black" stroke="black" points="285.11,-204.35 295.67,-203.46 286.86,-197.57 285.11,-204.35"/>
</g>
<!-- gui.main_gui&#45;&gt;gui.gui_helpers -->
<g id="edge24" class="edge">
<title>gui.main_gui&#45;&gt;gui.gui_helpers</title>
<path fill="none" stroke="black" d="M165.34,-154.23C341.2,-153.71 856.99,-152.21 1055.37,-151.63"/>
<polygon fill="black" stroke="black" points="1055.34,-155.13 1065.33,-151.6 1055.32,-148.13 1055.34,-155.13"/>
</g>
<!-- gui.__init__ -->
<g id="node18" class="node">
<title>gui.__init__</title>
<g id="a_node18"><a xlink:href="http://localhost:8888/notebooks/gui/__init__.py" xlink:title="gui.__init__" target="_blank">
<ellipse fill="none" stroke="black" cx="104.58" cy="-595.4" rx="55.96" ry="18"/>
<text xml:space="preserve" text-anchor="middle" x="104.58" y="-590.35" font-family="Times New Roman,serif" font-size="14.00">gui.__init__</text>
</a>
</g>
</g>
</g>
</svg>
