<?xml version="1.0" encoding="UTF-8" standalone="no"?>
<!DOCTYPE svg PUBLIC "-//W3C//DTD SVG 1.1//EN"
 "http://www.w3.org/Graphics/SVG/1.1/DTD/svg11.dtd">
<!-- Generated by graphviz version 14.1.2 (20260124.0452)
 -->
<!-- Pages: 1 -->
<svg width="720pt" height="192pt"
 viewBox="0.00 0.00 720.00 192.00" xmlns="http://www.w3.org/2000/svg" xmlns:xlink="http://www.w3.org/1999/xlink">
<g id="graph0" class="graph" transform="scale(0.599311 0.599311) rotate(0) translate(4 316)">
<polygon fill="white" stroke="none" points="-4,4 -4,-316 1197.38,-316 1197.38,4 -4,4"/>
<!-- modulok.astro_core -->
<g id="node1" class="node">
<title>modulok.astro_core</title>
<g id="a_node1"><a xlink:href="http://localhost:8888/notebooks/modulok/astro_core.py" xlink:title="modulok.astro_core" target="_blank">
<ellipse fill="none" stroke="black" cx="931.67" cy="-202" rx="85.13" ry="18"/>
<text xml:space="preserve" text-anchor="middle" x="931.67" y="-196.95" font-family="Times New Roman,serif" font-size="14.00">modulok.astro_core</text>
</a>
</g>
</g>
<!-- modulok.config -->
<g id="node2" class="node">
<title>modulok.config</title>
<g id="a_node2"><a xlink:href="http://localhost:8888/notebooks/modulok/config.py" xlink:title="modulok.config" target="_blank">
<ellipse fill="none" stroke="black" cx="1123.09" cy="-148" rx="70.29" ry="18"/>
<text xml:space="preserve" text-anchor="middle" x="1123.09" y="-142.95" font-family="Times New Roman,serif" font-size="14.00">modulok.config</text>
</a>
</g>
</g>
<!-- modulok.astro_core&#45;&gt;modulok.config -->
<g id="edge2" class="edge">
<title>modulok.astro_core&#45;&gt;modulok.config</title>
<path fill="none" stroke="black" d="M983.93,-187.39C1008.65,-180.34 1038.41,-171.86 1063.97,-164.57"/>
<polygon fill="black" stroke="black" points="1064.9,-167.94 1073.56,-161.84 1062.98,-161.21 1064.9,-167.94"/>
</g>
<!-- modulok.tables -->
<g id="node7" class="node">
<title>modulok.tables</title>
<g id="a_node7"><a xlink:href="http://localhost:8888/notebooks/modulok/tables.py" xlink:title="modulok.tables" target="_blank">
<ellipse fill="none" stroke="black" cx="1123.09" cy="-202" rx="68.24" ry="18"/>
<text xml:space="preserve" text-anchor="middle" x="1123.09" y="-196.95" font-family="Times New Roman,serif" font-size="14.00">modulok.tables</text>
</a>
</g>
</g>
<!-- modulok.astro_core&#45;&gt;modulok.tables -->
<g id="edge1" class="edge">
<title>modulok.astro_core&#45;&gt;modulok.tables</title>
<path fill="none" stroke="black" d="M1017.13,-202C1025.85,-202 1034.67,-202 1043.32,-202"/>
<polygon fill="black" stroke="black" points="1043.04,-205.5 1053.04,-202 1043.04,-198.5 1043.04,-205.5"/>
</g>
<!-- modulok.elemzes -->
<g id="node3" class="node">
<title>modulok.elemzes</title>
<g id="a_node3"><a xlink:href="http://localhost:8888/notebooks/modulok/elemzes.py" xlink:title="modulok.elemzes" target="_blank">
<ellipse fill="none" stroke="black" cx="931.67" cy="-148" rx="76.94" ry="18"/>
<text xml:space="preserve" text-anchor="middle" x="931.67" y="-142.95" font-family="Times New Roman,serif" font-size="14.00">modulok.elemzes</text>
</a>
</g>
</g>
<!-- modulok.elemzes&#45;&gt;modulok.config -->
<g id="edge4" class="edge">
<title>modulok.elemzes&#45;&gt;modulok.config</title>
<path fill="none" stroke="black" d="M1008.9,-148C1019.47,-148 1030.36,-148 1041.01,-148"/>
<polygon fill="black" stroke="black" points="1040.94,-151.5 1050.94,-148 1040.94,-144.5 1040.94,-151.5"/>
</g>
<!-- modulok.elemzes&#45;&gt;modulok.tables -->
<g id="edge3" class="edge">
<title>modulok.elemzes&#45;&gt;modulok.tables</title>
<path fill="none" stroke="black" d="M981.95,-162.05C1007.27,-169.27 1038.27,-178.1 1064.67,-185.63"/>
<polygon fill="black" stroke="black" points="1063.64,-188.98 1074.22,-188.35 1065.56,-182.24 1063.64,-188.98"/>
</g>
<!-- modulok.grafika -->
<g id="node4" class="node">
<title>modulok.grafika</title>
<g id="a_node4"><a xlink:href="http://localhost:8888/notebooks/modulok/grafika.py" xlink:title="modulok.grafika" target="_blank">
<ellipse fill="none" stroke="black" cx="697.26" cy="-294" rx="72.85" ry="18"/>
<text xml:space="preserve" text-anchor="middle" x="697.26" y="-288.95" font-family="Times New Roman,serif" font-size="14.00">modulok.grafika</text>
</a>
</g>
</g>
<!-- modulok.grafika&#45;&gt;modulok.astro_core -->
<g id="edge6" class="edge">
<title>modulok.grafika&#45;&gt;modulok.astro_core</title>
<path fill="none" stroke="black" d="M750.35,-281.32C769.53,-276.08 791.27,-269.48 810.54,-262 837.87,-251.39 867.33,-236.73 890.24,-224.55"/>
<polygon fill="black" stroke="black" points="891.79,-227.69 898.94,-219.87 888.48,-221.53 891.79,-227.69"/>
</g>
<!-- modulok.grafika&#45;&gt;modulok.tables -->
<g id="edge5" class="edge">
<title>modulok.grafika&#45;&gt;modulok.tables</title>
<path fill="none" stroke="black" d="M756.28,-283.06C820.27,-270.79 926.18,-249.85 1016.8,-229 1031.9,-225.53 1048.14,-221.51 1063.23,-217.64"/>
<polygon fill="black" stroke="black" points="1063.72,-221.13 1072.53,-215.25 1061.97,-214.36 1063.72,-221.13"/>
</g>
<!-- modulok.prashna_core -->
<g id="node5" class="node">
<title>modulok.prashna_core</title>
<g id="a_node5"><a xlink:href="http://localhost:8888/notebooks/modulok/prashna_core.py" xlink:title="modulok.prashna_core" target="_blank">
<ellipse fill="none" stroke="black" cx="697.26" cy="-148" rx="95.88" ry="18"/>
<text xml:space="preserve" text-anchor="middle" x="697.26" y="-142.95" font-family="Times New Roman,serif" font-size="14.00">modulok.prashna_core</text>
</a>
</g>
</g>
<!-- modulok.prashna_core&#45;&gt;modulok.astro_core -->
<g id="edge7" class="edge">
<title>modulok.prashna_core&#45;&gt;modulok.astro_core</title>
<path fill="none" stroke="black" d="M759.02,-162.12C790.68,-169.47 829.51,-178.5 862.23,-186.1"/>
<polygon fill="black" stroke="black" points="861.06,-189.42 871.59,-188.27 862.65,-182.6 861.06,-189.42"/>
</g>
<!-- modulok.sonic_world -->
<g id="node6" class="node">
<title>modulok.sonic_world</title>
<g id="a_node6"><a xlink:href="http://localhost:8888/notebooks/modulok/sonic_world.py" xlink:title="modulok.sonic_world" target="_blank">
<ellipse fill="none" stroke="black" cx="455.69" cy="-198" rx="92.3" ry="18"/>
<text xml:space="preserve" text-anchor="middle" x="455.69" y="-192.95" font-family="Times New Roman,serif" font-size="14.00">modulok.sonic_world</text>
</a>
</g>
</g>
<!-- modulok.sonic_world&#45;&gt;modulok.astro_core -->
<g id="edge9" class="edge">
<title>modulok.sonic_world&#45;&gt;modulok.astro_core</title>
<path fill="none" stroke="black" d="M507.28,-213.26C530.42,-219.48 558.35,-225.92 583.98,-229 683.96,-241 710.46,-240.11 810.54,-229 829.1,-226.94 848.99,-223.14 867.13,-219.03"/>
<polygon fill="black" stroke="black" points="867.76,-222.48 876.7,-216.79 866.16,-215.66 867.76,-222.48"/>
</g>
<!-- modulok.sonic_world&#45;&gt;modulok.prashna_core -->
<g id="edge10" class="edge">
<title>modulok.sonic_world&#45;&gt;modulok.prashna_core</title>
<path fill="none" stroke="black" d="M520.26,-184.73C551.01,-178.31 588.16,-170.56 620.38,-163.84"/>
<polygon fill="black" stroke="black" points="621,-167.28 630.08,-161.81 619.57,-160.43 621,-167.28"/>
</g>
<!-- modulok.varshaphala_tools -->
<g id="node8" class="node">
<title>modulok.varshaphala_tools</title>
<g id="a_node8"><a xlink:href="http://localhost:8888/notebooks/modulok/varshaphala_tools.py" xlink:title="modulok.varshaphala_tools" target="_blank">
<ellipse fill="none" stroke="black" cx="697.26" cy="-202" rx="113.28" ry="18"/>
<text xml:space="preserve" text-anchor="middle" x="697.26" y="-196.95" font-family="Times New Roman,serif" font-size="14.00">modulok.varshaphala_tools</text>
</a>
</g>
</g>
<!-- modulok.sonic_world&#45;&gt;modulok.varshaphala_tools -->
<g id="edge8" class="edge">
<title>modulok.sonic_world&#45;&gt;modulok.varshaphala_tools</title>
<path fill="none" stroke="black" d="M547.94,-199.52C556.12,-199.66 564.5,-199.8 572.89,-199.94"/>
<polygon fill="black" stroke="black" points="572.76,-203.44 582.82,-200.11 572.88,-196.44 572.76,-203.44"/>
</g>
<!-- modulok.varshaphala_tools&#45;&gt;modulok.astro_core -->
<g id="edge11" class="edge">
<title>modulok.varshaphala_tools&#45;&gt;modulok.astro_core</title>
<path fill="none" stroke="black" d="M810.72,-202C818.74,-202 826.78,-202 834.7,-202"/>
<polygon fill="black" stroke="black" points="834.67,-205.5 844.67,-202 834.67,-198.5 834.67,-205.5"/>
</g>
<!-- modulok.__init__ -->
<g id="node9" class="node">
<title>modulok.__init__</title>
<g id="a_node9"><a xlink:href="http://localhost:8888/notebooks/modulok/__init__.py" xlink:title="modulok.__init__" target="_blank">
<ellipse fill="none" stroke="black" cx="77.45" cy="-177" rx="77.45" ry="18"/>
<text xml:space="preserve" text-anchor="middle" x="77.45" y="-171.95" font-family="Times New Roman,serif" font-size="14.00">modulok.__init__</text>
</a>
</g>
</g>
<!-- gui.gui_helpers -->
<g id="node10" class="node">
<title>gui.gui_helpers</title>
<g id="a_node10"><a xlink:href="http://localhost:8888/notebooks/gui/gui_helpers.py" xlink:title="gui.gui_helpers" target="_blank">
<ellipse fill="none" stroke="black" cx="259.15" cy="-194" rx="68.24" ry="18"/>
<text xml:space="preserve" text-anchor="middle" x="259.15" y="-188.95" font-family="Times New Roman,serif" font-size="14.00">gui.gui_helpers</text>
</a>
</g>
</g>
<!-- gui.gui_helpers&#45;&gt;modulok.sonic_world -->
<g id="edge12" class="edge">
<title>gui.gui_helpers&#45;&gt;modulok.sonic_world</title>
<path fill="none" stroke="black" d="M327.64,-195.39C335.64,-195.55 343.93,-195.72 352.28,-195.89"/>
<polygon fill="black" stroke="black" points="352.08,-199.39 362.15,-196.1 352.23,-192.39 352.08,-199.39"/>
</g>
<!-- gui.main_gui -->
<g id="node11" class="node">
<title>gui.main_gui</title>
<g id="a_node11"><a xlink:href="http://localhost:8888/notebooks/gui/main_gui.py" xlink:title="gui.main_gui" target="_blank">
<ellipse fill="none" stroke="black" cx="77.45" cy="-123" rx="60.56" ry="18"/>
<text xml:space="preserve" text-anchor="middle" x="77.45" y="-117.95" font-family="Times New Roman,serif" font-size="14.00">gui.main_gui</text>
</a>
</g>
</g>
<!-- gui.main_gui&#45;&gt;modulok.astro_core -->
<g id="edge14" class="edge">
<title>gui.main_gui&#45;&gt;modulok.astro_core</title>
<path fill="none" stroke="black" d="M133.99,-116.21C284.04,-98.88 694.07,-58.67 810.54,-121 835.97,-134.61 823.52,-157.62 846.54,-175 851.17,-178.49 856.26,-181.54 861.58,-184.2"/>
<polygon fill="black" stroke="black" points="860.09,-187.37 870.65,-188.24 862.94,-180.98 860.09,-187.37"/>
</g>
<!-- gui.main_gui&#45;&gt;modulok.elemzes -->
<g id="edge15" class="edge">
<title>gui.main_gui&#45;&gt;modulok.elemzes</title>
<path fill="none" stroke="black" d="M115.02,-108.54C136.7,-100.75 164.93,-91.95 190.91,-88 463.17,-46.61 542.5,-24.79 810.54,-88 840.78,-95.13 872.1,-111.1 895.17,-124.77"/>
<polygon fill="black" stroke="black" points="893.18,-127.66 903.55,-129.87 896.82,-121.68 893.18,-127.66"/>
</g>
<!-- gui.main_gui&#45;&gt;modulok.grafika -->
<g id="edge18" class="edge">
<title>gui.main_gui&#45;&gt;modulok.grafika</title>
<path fill="none" stroke="black" d="M126.77,-133.81C136.86,-137.69 146.87,-142.94 154.91,-150 181.49,-173.34 162.16,-200.37 190.91,-221 319.46,-313.26 514.43,-312.35 620.7,-303.35"/>
<polygon fill="black" stroke="black" points="620.8,-306.85 630.45,-302.47 620.17,-299.88 620.8,-306.85"/>
</g>
<!-- gui.main_gui&#45;&gt;modulok.prashna_core -->
<g id="edge17" class="edge">
<title>gui.main_gui&#45;&gt;modulok.prashna_core</title>
<path fill="none" stroke="black" d="M137.97,-125.41C242.81,-129.65 461.6,-138.5 591.99,-143.78"/>
<polygon fill="black" stroke="black" points="591.51,-147.26 601.64,-144.17 591.79,-140.27 591.51,-147.26"/>
</g>
<!-- gui.main_gui&#45;&gt;gui.gui_helpers -->
<g id="edge16" class="edge">
<title>gui.main_gui&#45;&gt;gui.gui_helpers</title>
<path fill="none" stroke="black" d="M118.31,-136.54C130.15,-140.7 143.1,-145.4 154.91,-150 173.94,-157.41 194.7,-166.13 212.58,-173.84"/>
<polygon fill="black" stroke="black" points="211.06,-177 221.63,-177.77 213.85,-170.58 211.06,-177"/>
</g>
<!-- modulok. -->
<g id="node13" class="node">
<title>modulok.</title>
<ellipse fill="none" stroke="black" cx="259.15" cy="-18" rx="46.75" ry="18"/>
<text xml:space="preserve" text-anchor="middle" x="259.15" y="-12.95" font-family="Times New Roman,serif" font-size="14.00">modulok.</text>
</g>
<!-- gui.main_gui&#45;&gt;modulok. -->
<g id="edge13" class="edge">
<title>gui.main_gui&#45;&gt;modulok.</title>
<path fill="none" stroke="black" d="M102.02,-106.4C124.39,-90.96 159.22,-67.73 190.91,-50 199.34,-45.28 208.58,-40.59 217.44,-36.31"/>
<polygon fill="black" stroke="black" points="218.69,-39.6 226.23,-32.15 215.69,-33.27 218.69,-39.6"/>
</g>
<!-- gui.__init__ -->
<g id="node12" class="node">
<title>gui.__init__</title>
<g id="a_node12"><a xlink:href="http://localhost:8888/notebooks/gui/__init__.py" xlink:title="gui.__init__" target="_blank">
<ellipse fill="none" stroke="black" cx="77.45" cy="-231" rx="55.96" ry="18"/>
<text xml:space="preserve" text-anchor="middle" x="77.45" y="-225.95" font-family="Times New Roman,serif" font-size="14.00">gui.__init__</text>
</a>
</g>
</g>
</g>
</svg>
